<mxfile host="app.diagrams.net" modified="2023-11-04T02:41:56.832Z" agent="Mozilla/5.0 (Windows NT 10.0; Win64; x64) AppleWebKit/537.36 (KHTML, like Gecko) Chrome/118.0.0.0 Safari/537.36 Edg/118.0.2088.69" version="22.0.8" etag="zl98-NGrzMt1SHMSXzmi" type="github">
  <diagram name="Page-1" id="2SqNIRvtYmeBkC6jiS0M">
    <mxGraphModel>
      <root>
        <mxCell id="0" />
        <mxCell id="1" parent="0" />
      </root>
    </mxGraphModel>
  </diagram>
</mxfile>
